<svg width="119" height="52" viewBox="0 0 119 52" fill="none" xmlns="http://www.w3.org/2000/svg">
<path d="M32.8401 50.1146C27.6457 48.9516 22.4569 47.8767 17.4101 46.2245C13.15 44.8282 9.00326 43.1891 5.45523 40.3406C-0.302116 35.7199 -1.30017 29.0307 2.91763 22.9331C5.61988 19.0209 9.36525 16.2997 13.4449 14.0205C22.2865 9.07367 31.8558 6.15252 41.6985 4.03627C50.4445 2.15519 59.2829 1.0671 68.2263 0.655773C78.5837 0.182162 88.8542 0.633558 98.9919 2.90202C104.326 4.09597 109.494 5.77469 113.874 9.22209C118.914 13.1914 119.561 18.292 115.656 23.3738C112.799 27.0927 108.968 29.6524 104.939 31.8938C93.4924 38.2675 81.2537 42.6487 68.6709 46.1237C62.6546 47.7838 56.5256 48.9158 50.367 49.881C50.0012 49.9362 49.6161 49.9312 49.2711 50.1905C52.3864 50.4295 55.4738 50.6689 58.5566 50.913C58.863 50.9374 59.3668 50.7785 59.3811 51.2288C59.3957 51.6976 58.8792 51.5548 58.5826 51.5767C53.1914 51.9018 47.8168 51.6323 42.4531 51.0888C41.6868 51.0091 40.9504 51.1149 40.1951 51.1791C35.8295 51.5438 31.4633 51.8481 27.0853 51.925C26.6864 51.9295 26.0028 52.1879 25.9902 51.4822C25.984 50.9251 26.607 51.0574 27.0007 50.9973C28.9502 50.6968 30.8997 50.401 32.8539 50.1005L32.8401 50.1146ZM72.5674 2.25088C70.0733 2.39027 67.5084 2.40973 64.9403 2.56852C58.1634 2.99272 51.4467 3.83417 44.7959 5.17171C34.3824 7.26185 24.271 10.2401 14.9314 15.4479C10.9255 17.6845 7.22083 20.317 4.53134 24.1269C1.04732 29.0601 1.5767 34.0783 5.96457 38.1897C7.89601 40.0022 10.1785 41.2721 12.5702 42.3458C19.3069 45.3628 26.4099 47.122 33.6466 48.4014C36.2122 48.8556 38.7748 49.4491 41.4143 49.0434C43.4518 48.728 45.4889 48.3848 47.5313 48.0926C63.0875 45.8566 78.0974 41.6393 92.5857 35.5845C98.851 32.965 105.021 30.1331 110.434 25.9259C112.342 24.4418 114.054 22.7603 115.259 20.6294C116.878 17.7648 116.649 15.0881 114.597 12.5155C113.666 11.3465 112.51 10.4354 111.267 9.62743C108.085 7.55498 104.573 6.27096 100.935 5.29947C91.6618 2.817 82.1876 2.21273 72.5674 2.25088Z" fill="#FBBF24"/>
</svg>
