<svg width="33" height="14" viewBox="0 0 33 14" fill="none" xmlns="http://www.w3.org/2000/svg">
<path d="M30.6419 3.60615C29.93 3.03696 29.2596 2.52645 28.619 1.98073C28.263 1.67559 27.9486 1.32351 27.6283 0.971437C27.4147 0.736718 27.2308 0.455059 27.5215 0.167529C27.83 -0.137605 28.1325 0.0267007 28.4054 0.243815C28.9215 0.66044 29.4198 1.0888 29.9359 1.50542C30.6952 2.10982 31.4783 2.66728 32.38 3.05456C33.1274 3.3773 33.2283 4.14601 32.5224 4.51569C31.1105 5.25505 29.8766 6.25261 28.5063 7.03891C28.3164 7.15041 28.0613 7.36165 27.8715 7.11519C27.7232 6.91568 27.9605 6.72205 28.0969 6.58121C28.6664 5.98268 29.2537 5.40175 29.8291 4.81495C29.924 4.7152 30.0902 4.63892 30.0486 4.48048C29.9952 4.2751 29.7935 4.31031 29.6334 4.29858C26.4715 4.03452 23.3096 3.69417 20.124 3.85261C18.0774 3.95236 16.0664 4.25163 14.2096 5.19638C13.5689 5.52498 12.9995 5.9416 12.5605 6.50493C12.4181 6.68683 12.2045 6.89808 12.2935 7.12693C12.4003 7.39099 12.7088 7.27363 12.9342 7.28537C15.1469 7.4086 17.2469 7.90737 19.1037 9.16311C19.8393 9.66189 20.4681 10.2546 20.7944 11.1054C21.1978 12.1616 20.8478 13.0712 19.8215 13.5758C18.7952 14.0805 17.7156 14.0805 16.624 13.8575C14.613 13.4409 12.8749 12.5607 11.635 10.8707C11.2554 10.3543 10.9291 9.78512 10.852 9.15725C10.7571 8.36507 10.3418 8.30639 9.67148 8.41201C7.35198 8.7817 5.18673 9.58561 3.09266 10.5949C2.30367 10.9763 1.52062 11.3577 0.719773 11.7157C0.512145 11.8096 0.203669 12.0443 0.0375674 11.7039C-0.110738 11.4105 0.215534 11.2638 0.399433 11.0995C0.417229 11.0819 0.435025 11.0702 0.458754 11.0585C3.60283 9.55041 6.58673 7.61984 10.1994 7.32644C10.5613 7.2971 10.8164 7.21495 10.9528 6.83353C11.4393 5.44869 12.4418 4.51569 13.7291 3.86435C16.191 2.61447 18.8486 2.35628 21.5478 2.45604C24.5139 2.56753 27.4444 2.97828 30.3393 3.62376C30.4046 3.63549 30.4757 3.61789 30.63 3.60615H30.6419ZM18.0062 12.9949C18.3444 12.9714 18.6588 12.9773 18.9554 12.9304C20.0884 12.7602 20.4503 11.9445 19.8096 10.9998C19.4893 10.5304 19.0562 10.1607 18.5817 9.84967C17.1223 8.8932 15.485 8.50004 13.7706 8.32986C13.1774 8.27118 12.335 7.91911 12.0562 8.42375C11.7478 8.98708 12.2639 9.70297 12.6435 10.2722C12.7325 10.4071 12.8333 10.5421 12.9461 10.6594C14.3283 12.0971 16.0367 12.8423 18.0003 12.989L18.0062 12.9949Z" fill="#FBBF24"/>
</svg>
