<svg width="119" height="8" viewBox="0 0 119 8" fill="none" xmlns="http://www.w3.org/2000/svg">
<path d="M110.388 2.29552C107.879 2.12242 104.979 2.14657 102.095 2.13449C96.0241 2.11436 89.9454 2.24318 83.8788 2.64574C80.3373 2.87923 76.7877 2.96377 73.2421 3.14492C66.5181 3.4871 59.798 3.86148 53.078 4.20366C49.5324 4.38481 45.9828 4.50156 42.4413 4.70284C36.3787 5.04502 30.3162 5.41537 24.2657 5.94273C18.7235 6.42983 13.1813 6.87668 7.63905 7.3517C5.59803 7.52883 3.56105 7.75024 1.52003 7.92334C0.971457 7.96762 0.100192 8.20916 0.00741826 7.51675C-0.0934227 6.74786 0.85851 6.85252 1.36271 6.80019C5.36812 6.38957 9.37755 6.04739 13.387 5.66899C18.1225 5.21812 22.8539 4.72297 27.5935 4.29222C31.7481 3.91381 35.9068 3.55554 40.0695 3.26166C46.4951 2.81079 52.9207 2.40823 59.3503 2.0097C63.513 1.75206 67.6838 1.56285 71.8465 1.31729C77.5097 0.979135 83.1649 0.544369 88.8321 0.274652C95.3787 -0.0353206 101.929 -0.172191 108.48 0.35114C111.695 0.60878 114.889 0.983163 118.072 1.47026C118.181 1.48637 118.294 1.48234 118.399 1.50649C118.677 1.57493 119.044 1.60714 118.996 1.9936C118.955 2.31565 118.608 2.27942 118.362 2.28344C117.116 2.29552 115.87 2.29149 114.623 2.29552C113.341 2.29552 112.058 2.29552 110.396 2.29552H110.388Z" fill="#FBBF24"/>
</svg>
