<svg width="61" height="4" viewBox="0 0 61 4" fill="none" xmlns="http://www.w3.org/2000/svg">
<path d="M56.2762 1.14776C54.9971 1.06121 53.5186 1.07328 52.0483 1.06724C48.9535 1.05718 45.8545 1.12159 42.7618 1.32287C40.9563 1.43962 39.1467 1.48189 37.3391 1.57246C33.9112 1.74355 30.4853 1.93074 27.0594 2.10183C25.2518 2.19241 23.4422 2.25078 21.6367 2.35142C18.546 2.52251 15.4553 2.70769 12.3708 2.97137C9.54531 3.21492 6.71986 3.43834 3.89442 3.67585C2.8539 3.76441 1.81544 3.87512 0.774918 3.96167C0.495253 3.98381 0.0510782 4.10458 0.00378186 3.75838C-0.0476272 3.37393 0.437672 3.42626 0.694717 3.40009C2.73669 3.19479 4.78071 3.0237 6.82474 2.83449C9.23891 2.60906 11.651 2.36148 14.0673 2.14611C16.1853 1.95691 18.3054 1.77777 20.4276 1.63083C23.7034 1.4054 26.9792 1.20412 30.257 1.00485C32.3792 0.876028 34.5054 0.781425 36.6276 0.658644C39.5148 0.489568 42.3978 0.272185 45.287 0.137326C48.6245 -0.0176603 51.964 -0.0860954 55.3035 0.17557C56.9424 0.30439 58.5711 0.491581 60.1936 0.735132C60.2491 0.743183 60.3067 0.741169 60.3601 0.753246C60.502 0.787464 60.6891 0.803568 60.6645 0.996798C60.6439 1.15782 60.467 1.13971 60.3416 1.14172C59.7062 1.14776 59.0708 1.14575 58.4354 1.14776C57.7814 1.14776 57.1275 1.14776 56.2803 1.14776H56.2762Z" fill="#FBBF24"/>
</svg>
