<svg width="26" height="15" viewBox="0 0 26 15" fill="none" xmlns="http://www.w3.org/2000/svg">
<path d="M2.09619 10.8313C6.77426 10.1381 11.4692 9.71417 15.7732 7.71518C19.2377 6.10288 22.271 3.9516 24.5265 0.827366C24.6669 0.635625 24.8078 0.308775 25.0958 0.474162C25.4197 0.660909 25.2137 0.96446 25.0881 1.18957C24.683 1.90436 24.1541 2.52718 23.606 3.1331C19.881 7.24563 15.159 9.60896 9.791 10.8171C7.64935 11.3018 5.47688 11.6136 3.15793 11.5863C4.19282 12.087 5.13982 12.5172 6.05403 13.0033C6.45391 13.2163 7.09074 13.4752 6.79206 14.0362C6.49044 14.6081 5.9862 14.1202 5.60372 13.953C4.26724 13.3596 2.93517 12.7498 1.60603 12.129C1.35756 12.0154 1.11645 11.8743 0.907766 11.7008C0.348949 11.2394 0.336183 10.689 0.846735 10.1789C0.911614 10.114 0.976503 10.049 1.05505 9.99949C2.36789 9.17505 3.68738 8.37004 5.09376 7.70593C5.29809 7.60778 5.57466 7.41724 5.77496 7.6885C5.94938 7.92344 5.69089 8.11294 5.56892 8.28021C4.89533 9.19948 3.96087 9.80772 2.99908 10.3851C2.71586 10.5562 2.39457 10.6701 2.09507 10.8133L2.09619 10.8313Z" fill="#FBBF24"/>
</svg>
