<svg width="14" height="18" viewBox="0 0 14 18" fill="none" xmlns="http://www.w3.org/2000/svg">
<path d="M3.79272 14.8996C5.51327 14.517 7.08854 13.7745 8.77086 13.3694C9.27556 13.2494 10.0173 12.7544 10.2696 13.2569C10.5526 13.8195 9.68084 14.0295 9.26791 14.307C7.33324 15.5896 5.24565 16.5872 3.06628 17.3823C1.15455 18.0724 0.206327 17.4423 0.0686823 15.4546C-0.0460212 13.7445 -0.0689451 12.0418 0.420457 10.3766C0.519866 10.0466 0.443389 9.46156 1.00926 9.52906C1.61337 9.59657 1.47573 10.1741 1.46808 10.5567C1.44514 12.0868 1.5522 13.6019 1.7816 15.1171C1.7969 15.2296 1.84278 15.3346 1.8963 15.4996C2.29394 15.3646 2.37805 15.0196 2.53099 14.7571C5.36799 9.79909 8.96967 5.35867 12.3955 0.805744C12.6937 0.408206 13.0837 -0.281858 13.6878 0.12318C14.3607 0.573222 13.7796 1.15828 13.489 1.60082C10.6367 5.92872 7.48619 10.0616 4.35861 14.202C4.18273 14.442 3.99155 14.667 3.80803 14.9071L3.79272 14.8996Z" fill="#FBBF24"/>
</svg>
