<svg width="183" height="25" viewBox="0 0 183 25" fill="none" xmlns="http://www.w3.org/2000/svg">
<path d="M6.304 18.192C5.504 18.192 4.768 18.0587 4.096 17.792C3.424 17.5253 2.84267 17.1413 2.352 16.64C1.872 16.1387 1.49333 15.536 1.216 14.832C0.938667 14.1173 0.8 13.312 0.8 12.416C0.8 11.52 0.938667 10.72 1.216 10.016C1.49333 9.30133 1.872 8.69333 2.352 8.192C2.84267 7.69067 3.424 7.30667 4.096 7.04C4.768 6.77333 5.504 6.64 6.304 6.64C7.09333 6.64 7.824 6.77333 8.496 7.04C9.168 7.30667 9.74933 7.69067 10.24 8.192C10.7307 8.69333 11.1147 9.30133 11.392 10.016C11.6693 10.72 11.808 11.52 11.808 12.416C11.808 13.312 11.6693 14.1173 11.392 14.832C11.1147 15.536 10.7307 16.1387 10.24 16.64C9.74933 17.1413 9.168 17.5253 8.496 17.792C7.824 18.0587 7.09333 18.192 6.304 18.192ZM6.304 17.184C6.93333 17.184 7.51467 17.0773 8.048 16.864C8.58133 16.64 9.04 16.3413 9.424 15.968C9.808 15.584 10.1067 15.136 10.32 14.624C10.5333 14.1013 10.64 13.5413 10.64 12.944V11.888C10.64 11.2907 10.5333 10.736 10.32 10.224C10.1067 9.70133 9.808 9.25333 9.424 8.88C9.04 8.496 8.58133 8.19733 8.048 7.984C7.51467 7.76 6.93333 7.648 6.304 7.648C5.67467 7.648 5.09333 7.76 4.56 7.984C4.02667 8.19733 3.568 8.496 3.184 8.88C2.8 9.25333 2.496 9.70133 2.272 10.224C2.05867 10.736 1.952 11.2907 1.952 11.888V12.944C1.952 13.5413 2.05867 14.1013 2.272 14.624C2.496 15.136 2.8 15.584 3.184 15.968C3.568 16.3413 4.02667 16.64 4.56 16.864C5.09333 17.0773 5.67467 17.184 6.304 17.184ZM6.416 15.76C5.92533 15.76 5.488 15.68 5.104 15.52C4.72 15.36 4.39467 15.136 4.128 14.848C3.86133 14.5493 3.65333 14.1973 3.504 13.792C3.36533 13.376 3.296 12.9173 3.296 12.416C3.296 11.9147 3.36533 11.4613 3.504 11.056C3.65333 10.64 3.86133 10.288 4.128 10C4.39467 9.70133 4.72 9.472 5.104 9.312C5.488 9.152 5.92533 9.072 6.416 9.072C7.12 9.072 7.68533 9.22667 8.112 9.536C8.54933 9.84533 8.87467 10.256 9.088 10.768L7.68 11.456C7.56267 11.1787 7.408 10.9547 7.216 10.784C7.024 10.6133 6.75733 10.528 6.416 10.528C6.032 10.528 5.73333 10.6453 5.52 10.88C5.30667 11.1147 5.2 11.424 5.2 11.808V13.024C5.2 13.408 5.30667 13.7173 5.52 13.952C5.73333 14.1867 6.032 14.304 6.416 14.304C6.75733 14.304 7.03467 14.2187 7.248 14.048C7.472 13.8667 7.65867 13.6373 7.808 13.36L9.2 14.048C8.98667 14.528 8.66133 14.9333 8.224 15.264C7.78667 15.5947 7.184 15.76 6.416 15.76Z" fill="#F9FAFB"/>
<path d="M24.984 17V8.624H26.568V15.596H29.868V17H24.984ZM34.8195 15.956H34.7595C34.7035 16.116 34.6275 16.268 34.5315 16.412C34.4435 16.548 34.3275 16.672 34.1835 16.784C34.0475 16.896 33.8795 16.984 33.6795 17.048C33.4875 17.112 33.2635 17.144 33.0075 17.144C32.3595 17.144 31.8635 16.932 31.5195 16.508C31.1755 16.084 31.0035 15.48 31.0035 14.696V10.736H32.5395V14.54C32.5395 14.972 32.6235 15.304 32.7915 15.536C32.9595 15.76 33.2275 15.872 33.5955 15.872C33.7475 15.872 33.8955 15.852 34.0395 15.812C34.1915 15.772 34.3235 15.712 34.4355 15.632C34.5475 15.544 34.6395 15.44 34.7115 15.32C34.7835 15.192 34.8195 15.044 34.8195 14.876V10.736H36.3555V17H34.8195V15.956ZM40.6022 17.144C40.1382 17.144 39.7262 17.068 39.3662 16.916C39.0062 16.764 38.7022 16.544 38.4542 16.256C38.2142 15.968 38.0302 15.624 37.9022 15.224C37.7742 14.816 37.7102 14.36 37.7102 13.856C37.7102 13.352 37.7742 12.9 37.9022 12.5C38.0302 12.1 38.2142 11.76 38.4542 11.48C38.7022 11.192 39.0062 10.972 39.3662 10.82C39.7262 10.668 40.1382 10.592 40.6022 10.592C41.2342 10.592 41.7542 10.732 42.1622 11.012C42.5782 11.292 42.8782 11.68 43.0622 12.176L41.8022 12.74C41.7302 12.476 41.5942 12.26 41.3942 12.092C41.2022 11.916 40.9382 11.828 40.6022 11.828C40.1702 11.828 39.8462 11.964 39.6302 12.236C39.4222 12.508 39.3182 12.864 39.3182 13.304V14.444C39.3182 14.884 39.4222 15.24 39.6302 15.512C39.8462 15.776 40.1702 15.908 40.6022 15.908C40.9702 15.908 41.2542 15.816 41.4542 15.632C41.6542 15.44 41.8102 15.204 41.9222 14.924L43.0982 15.488C42.8902 16.04 42.5742 16.456 42.1502 16.736C41.7262 17.008 41.2102 17.144 40.6022 17.144ZM45.0505 9.824C44.7305 9.824 44.4985 9.752 44.3545 9.608C44.2185 9.464 44.1505 9.28 44.1505 9.056V8.816C44.1505 8.592 44.2185 8.408 44.3545 8.264C44.4985 8.12 44.7305 8.048 45.0505 8.048C45.3625 8.048 45.5905 8.12 45.7345 8.264C45.8785 8.408 45.9505 8.592 45.9505 8.816V9.056C45.9505 9.28 45.8785 9.464 45.7345 9.608C45.5905 9.752 45.3625 9.824 45.0505 9.824ZM44.2825 10.736H45.8185V17H44.2825V10.736ZM52.2069 17C51.8709 17 51.6029 16.904 51.4029 16.712C51.2109 16.512 51.0909 16.248 51.0429 15.92H50.9709C50.8669 16.328 50.6549 16.636 50.3349 16.844C50.0149 17.044 49.6189 17.144 49.1469 17.144C48.5069 17.144 48.0149 16.976 47.6709 16.64C47.3269 16.304 47.1549 15.856 47.1549 15.296C47.1549 14.648 47.3869 14.168 47.8509 13.856C48.3149 13.536 48.9749 13.376 49.8309 13.376H50.8989V12.92C50.8989 12.568 50.8069 12.296 50.6229 12.104C50.4389 11.912 50.1429 11.816 49.7349 11.816C49.3749 11.816 49.0829 11.896 48.8589 12.056C48.6429 12.208 48.4589 12.392 48.3069 12.608L47.3949 11.792C47.6269 11.432 47.9349 11.144 48.3189 10.928C48.7029 10.704 49.2109 10.592 49.8429 10.592C50.6909 10.592 51.3349 10.784 51.7749 11.168C52.2149 11.552 52.4349 12.104 52.4349 12.824V15.776H53.0589V17H52.2069ZM49.6629 16.028C50.0069 16.028 50.2989 15.952 50.5389 15.8C50.7789 15.648 50.8989 15.424 50.8989 15.128V14.3H49.9149C49.1149 14.3 48.7149 14.556 48.7149 15.068V15.272C48.7149 15.528 48.7949 15.72 48.9549 15.848C49.1229 15.968 49.3589 16.028 49.6629 16.028ZM54.3021 17V10.736H55.8381V11.78H55.8981C56.0261 11.444 56.2261 11.164 56.4981 10.94C56.7781 10.708 57.1621 10.592 57.6501 10.592C58.2981 10.592 58.7941 10.804 59.1381 11.228C59.4821 11.652 59.6541 12.256 59.6541 13.04V17H58.1181V13.196C58.1181 12.748 58.0381 12.412 57.8781 12.188C57.7181 11.964 57.4541 11.852 57.0861 11.852C56.9261 11.852 56.7701 11.876 56.6181 11.924C56.4741 11.964 56.3421 12.028 56.2221 12.116C56.1101 12.196 56.0181 12.3 55.9461 12.428C55.8741 12.548 55.8381 12.692 55.8381 12.86V17H54.3021ZM63.8888 17.144C63.4248 17.144 63.0088 17.068 62.6408 16.916C62.2808 16.756 61.9728 16.536 61.7168 16.256C61.4688 15.968 61.2768 15.624 61.1408 15.224C61.0048 14.816 60.9368 14.36 60.9368 13.856C60.9368 13.36 61.0008 12.912 61.1288 12.512C61.2648 12.112 61.4568 11.772 61.7048 11.492C61.9528 11.204 62.2568 10.984 62.6168 10.832C62.9768 10.672 63.3848 10.592 63.8408 10.592C64.3288 10.592 64.7528 10.676 65.1128 10.844C65.4728 11.012 65.7688 11.24 66.0008 11.528C66.2328 11.816 66.4048 12.152 66.5168 12.536C66.6368 12.912 66.6968 13.316 66.6968 13.748V14.252H62.5328V14.408C62.5328 14.864 62.6608 15.232 62.9168 15.512C63.1728 15.784 63.5528 15.92 64.0568 15.92C64.4408 15.92 64.7528 15.84 64.9928 15.68C65.2408 15.52 65.4608 15.316 65.6528 15.068L66.4808 15.992C66.2248 16.352 65.8728 16.636 65.4248 16.844C64.9848 17.044 64.4728 17.144 63.8888 17.144ZM63.8648 11.744C63.4568 11.744 63.1328 11.88 62.8928 12.152C62.6528 12.424 62.5328 12.776 62.5328 13.208V13.304H65.1008V13.196C65.1008 12.764 64.9928 12.416 64.7768 12.152C64.5688 11.88 64.2648 11.744 63.8648 11.744ZM73.5841 17.144C72.8641 17.144 72.2521 17.016 71.7481 16.76C71.2521 16.504 70.8241 16.168 70.4641 15.752L71.5321 14.72C71.8201 15.056 72.1401 15.312 72.4921 15.488C72.8521 15.664 73.2481 15.752 73.6801 15.752C74.1681 15.752 74.5361 15.648 74.7841 15.44C75.0321 15.224 75.1561 14.936 75.1561 14.576C75.1561 14.296 75.0761 14.068 74.9161 13.892C74.7561 13.716 74.4561 13.588 74.0161 13.508L73.2241 13.388C71.5521 13.124 70.7161 12.312 70.7161 10.952C70.7161 10.576 70.7841 10.236 70.9201 9.932C71.0641 9.628 71.2681 9.368 71.5321 9.152C71.7961 8.936 72.1121 8.772 72.4801 8.66C72.8561 8.54 73.2801 8.48 73.7521 8.48C74.3841 8.48 74.9361 8.584 75.4081 8.792C75.8801 9 76.2841 9.308 76.6201 9.716L75.5401 10.736C75.3321 10.48 75.0801 10.272 74.7841 10.112C74.4881 9.952 74.1161 9.872 73.6681 9.872C73.2121 9.872 72.8681 9.96 72.6361 10.136C72.4121 10.304 72.3001 10.544 72.3001 10.856C72.3001 11.176 72.3921 11.412 72.5761 11.564C72.7601 11.716 73.0561 11.828 73.4641 11.9L74.2441 12.044C75.0921 12.196 75.7161 12.468 76.1161 12.86C76.5241 13.244 76.7281 13.784 76.7281 14.48C76.7281 14.88 76.6561 15.244 76.5121 15.572C76.3761 15.892 76.1721 16.172 75.9001 16.412C75.6361 16.644 75.3081 16.824 74.9161 16.952C74.5321 17.08 74.0881 17.144 73.5841 17.144ZM82.828 17C82.492 17 82.224 16.904 82.024 16.712C81.832 16.512 81.712 16.248 81.664 15.92H81.592C81.488 16.328 81.276 16.636 80.956 16.844C80.636 17.044 80.24 17.144 79.768 17.144C79.128 17.144 78.636 16.976 78.292 16.64C77.948 16.304 77.776 15.856 77.776 15.296C77.776 14.648 78.008 14.168 78.472 13.856C78.936 13.536 79.596 13.376 80.452 13.376H81.52V12.92C81.52 12.568 81.428 12.296 81.244 12.104C81.06 11.912 80.764 11.816 80.356 11.816C79.996 11.816 79.704 11.896 79.48 12.056C79.264 12.208 79.08 12.392 78.928 12.608L78.016 11.792C78.248 11.432 78.556 11.144 78.94 10.928C79.324 10.704 79.832 10.592 80.464 10.592C81.312 10.592 81.956 10.784 82.396 11.168C82.836 11.552 83.056 12.104 83.056 12.824V15.776H83.68V17H82.828ZM80.284 16.028C80.628 16.028 80.92 15.952 81.16 15.8C81.4 15.648 81.52 15.424 81.52 15.128V14.3H80.536C79.736 14.3 79.336 14.556 79.336 15.068V15.272C79.336 15.528 79.416 15.72 79.576 15.848C79.744 15.968 79.98 16.028 80.284 16.028ZM84.9232 17V10.736H86.4592V11.78H86.5192C86.6472 11.444 86.8472 11.164 87.1192 10.94C87.3992 10.708 87.7832 10.592 88.2712 10.592C88.9192 10.592 89.4152 10.804 89.7592 11.228C90.1032 11.652 90.2752 12.256 90.2752 13.04V17H88.7392V13.196C88.7392 12.748 88.6592 12.412 88.4992 12.188C88.3392 11.964 88.0752 11.852 87.7072 11.852C87.5472 11.852 87.3912 11.876 87.2392 11.924C87.0952 11.964 86.9632 12.028 86.8432 12.116C86.7312 12.196 86.6392 12.3 86.5672 12.428C86.4952 12.548 86.4592 12.692 86.4592 12.86V17H84.9232ZM93.9338 17C93.4058 17 93.0018 16.864 92.7218 16.592C92.4498 16.312 92.3138 15.916 92.3138 15.404V11.96H91.3898V10.736H91.8698C92.1018 10.736 92.2578 10.684 92.3378 10.58C92.4258 10.468 92.4698 10.304 92.4698 10.088V9.02H93.8498V10.736H95.1338V11.96H93.8498V15.776H95.0378V17H93.9338ZM98.9033 17.144C98.4553 17.144 98.0513 17.068 97.6913 16.916C97.3393 16.764 97.0353 16.544 96.7793 16.256C96.5313 15.968 96.3393 15.624 96.2033 15.224C96.0673 14.816 95.9993 14.36 95.9993 13.856C95.9993 13.352 96.0673 12.9 96.2033 12.5C96.3393 12.1 96.5313 11.76 96.7793 11.48C97.0353 11.192 97.3393 10.972 97.6913 10.82C98.0513 10.668 98.4553 10.592 98.9033 10.592C99.3513 10.592 99.7553 10.668 100.115 10.82C100.475 10.972 100.779 11.192 101.027 11.48C101.283 11.76 101.479 12.1 101.615 12.5C101.751 12.9 101.819 13.352 101.819 13.856C101.819 14.36 101.751 14.816 101.615 15.224C101.479 15.624 101.283 15.968 101.027 16.256C100.779 16.544 100.475 16.764 100.115 16.916C99.7553 17.068 99.3513 17.144 98.9033 17.144ZM98.9033 15.908C99.3113 15.908 99.6313 15.784 99.8633 15.536C100.095 15.288 100.211 14.924 100.211 14.444V13.28C100.211 12.808 100.095 12.448 99.8633 12.2C99.6313 11.952 99.3113 11.828 98.9033 11.828C98.5033 11.828 98.1873 11.952 97.9553 12.2C97.7233 12.448 97.6073 12.808 97.6073 13.28V14.444C97.6073 14.924 97.7233 15.288 97.9553 15.536C98.1873 15.784 98.5033 15.908 98.9033 15.908ZM105.233 17.144C104.633 17.144 104.129 17.044 103.721 16.844C103.313 16.636 102.953 16.352 102.641 15.992L103.577 15.08C103.809 15.344 104.061 15.552 104.333 15.704C104.613 15.856 104.933 15.932 105.293 15.932C105.661 15.932 105.925 15.868 106.085 15.74C106.253 15.612 106.337 15.436 106.337 15.212C106.337 15.028 106.277 14.884 106.157 14.78C106.045 14.668 105.849 14.592 105.569 14.552L104.945 14.468C104.265 14.38 103.745 14.188 103.385 13.892C103.033 13.588 102.857 13.148 102.857 12.572C102.857 12.268 102.913 11.996 103.025 11.756C103.137 11.508 103.297 11.3 103.505 11.132C103.713 10.956 103.961 10.824 104.249 10.736C104.545 10.64 104.873 10.592 105.233 10.592C105.537 10.592 105.805 10.616 106.037 10.664C106.277 10.704 106.493 10.768 106.685 10.856C106.877 10.936 107.053 11.04 107.213 11.168C107.373 11.288 107.529 11.424 107.681 11.576L106.781 12.476C106.597 12.284 106.377 12.124 106.121 11.996C105.865 11.868 105.585 11.804 105.281 11.804C104.945 11.804 104.701 11.864 104.549 11.984C104.405 12.104 104.333 12.26 104.333 12.452C104.333 12.66 104.393 12.82 104.513 12.932C104.641 13.036 104.853 13.112 105.149 13.16L105.785 13.244C107.137 13.436 107.813 14.052 107.813 15.092C107.813 15.396 107.749 15.676 107.621 15.932C107.501 16.18 107.329 16.396 107.105 16.58C106.881 16.756 106.609 16.896 106.289 17C105.977 17.096 105.625 17.144 105.233 17.144ZM117.669 17H111.861V15.536L114.489 13.232C114.937 12.84 115.265 12.488 115.473 12.176C115.681 11.856 115.785 11.512 115.785 11.144V10.988C115.785 10.62 115.665 10.34 115.425 10.148C115.185 9.948 114.893 9.848 114.549 9.848C114.117 9.848 113.789 9.972 113.565 10.22C113.341 10.46 113.181 10.752 113.085 11.096L111.717 10.568C111.805 10.288 111.929 10.024 112.089 9.776C112.249 9.52 112.449 9.296 112.689 9.104C112.937 8.912 113.225 8.76 113.553 8.648C113.881 8.536 114.257 8.48 114.681 8.48C115.121 8.48 115.513 8.544 115.857 8.672C116.201 8.792 116.489 8.964 116.721 9.188C116.961 9.412 117.141 9.676 117.261 9.98C117.389 10.284 117.453 10.616 117.453 10.976C117.453 11.328 117.397 11.648 117.285 11.936C117.173 12.224 117.021 12.5 116.829 12.764C116.637 13.02 116.413 13.268 116.157 13.508C115.901 13.74 115.629 13.976 115.341 14.216L113.577 15.668H117.669V17ZM121.913 17.144C121.377 17.144 120.913 17.048 120.521 16.856C120.129 16.656 119.805 16.372 119.549 16.004C119.293 15.636 119.101 15.184 118.973 14.648C118.853 14.112 118.793 13.5 118.793 12.812C118.793 12.132 118.853 11.524 118.973 10.988C119.101 10.444 119.293 9.988 119.549 9.62C119.805 9.252 120.129 8.972 120.521 8.78C120.913 8.58 121.377 8.48 121.913 8.48C122.977 8.48 123.761 8.86 124.265 9.62C124.777 10.38 125.033 11.444 125.033 12.812C125.033 14.18 124.777 15.244 124.265 16.004C123.761 16.764 122.977 17.144 121.913 17.144ZM121.913 15.812C122.449 15.812 122.821 15.612 123.029 15.212C123.245 14.804 123.353 14.256 123.353 13.568V12.056C123.353 11.368 123.245 10.824 123.029 10.424C122.821 10.016 122.449 9.812 121.913 9.812C121.377 9.812 121.001 10.016 120.785 10.424C120.577 10.824 120.473 11.368 120.473 12.056V13.568C120.473 14.256 120.577 14.804 120.785 15.212C121.001 15.612 121.377 15.812 121.913 15.812ZM132.06 17H126.252V15.536L128.88 13.232C129.328 12.84 129.656 12.488 129.864 12.176C130.072 11.856 130.176 11.512 130.176 11.144V10.988C130.176 10.62 130.056 10.34 129.816 10.148C129.576 9.948 129.284 9.848 128.94 9.848C128.508 9.848 128.18 9.972 127.956 10.22C127.732 10.46 127.572 10.752 127.476 11.096L126.108 10.568C126.196 10.288 126.32 10.024 126.48 9.776C126.64 9.52 126.84 9.296 127.08 9.104C127.328 8.912 127.616 8.76 127.944 8.648C128.272 8.536 128.648 8.48 129.072 8.48C129.512 8.48 129.904 8.544 130.248 8.672C130.592 8.792 130.88 8.964 131.112 9.188C131.352 9.412 131.532 9.676 131.652 9.98C131.78 10.284 131.844 10.616 131.844 10.976C131.844 11.328 131.788 11.648 131.676 11.936C131.564 12.224 131.412 12.5 131.22 12.764C131.028 13.02 130.804 13.268 130.548 13.508C130.292 13.74 130.02 13.976 129.732 14.216L127.968 15.668H132.06V17ZM136.879 17V15.38H133.087V14.036L136.423 8.624H138.379V14.156H139.471V15.38H138.379V17H136.879ZM134.383 14.156H136.879V10.16H136.783L134.383 14.156Z" fill="#F9FAFB"/>
<path d="M111.231 24.3835C110.309 24.3885 109.189 24.3835 108.169 23.8865C107.942 23.7761 107.721 23.8665 107.51 23.9551C107.031 24.1559 106.56 24.3684 106.074 24.5525C104.053 25.3171 102.188 25.1214 100.555 23.8146C100.148 23.4883 99.8881 23.485 99.4484 23.7878C97.5233 25.108 95.9324 25.1799 93.81 24.1007C93.3976 23.8916 92.9755 23.6924 92.5904 23.4498C91.9514 23.0466 91.324 23.0733 90.6497 23.3779C89.7996 23.7594 88.9162 24.0706 87.9976 24.3166C86.3169 24.7683 84.8491 24.4621 83.5377 23.4917C83.4302 23.4113 83.3149 23.3394 83.2152 23.2524C82.8478 22.9244 82.5293 22.8843 82.0934 23.229C81.1729 23.9568 80.1293 24.4772 78.7964 24.3952C78.1983 24.3584 77.6491 24.1978 77.1117 24.0003C76.5723 23.8029 76.0563 23.5569 75.5794 23.2658C73.9495 22.2702 74.1078 22.394 72.4778 23.1955C71.016 23.915 69.4857 24.3048 67.7893 24.0254C66.7104 23.8481 65.8212 23.3578 64.9964 22.7605C64.1737 22.1665 64.1365 22.1748 63.175 22.6166C61.8968 23.2055 60.5776 23.664 59.0864 23.6506C57.6851 23.6389 56.487 23.2607 55.5196 22.3622C54.8102 21.7046 54.7809 21.708 53.9424 22.2401C52.5763 23.1068 51.1574 23.8832 49.4532 24.1492C48.7399 24.2613 48.005 24.3149 47.3112 24.0355C47.1529 23.9719 46.9477 23.8982 47.0122 23.7142C47.0708 23.5502 47.2877 23.5954 47.4324 23.6155C48.9314 23.8213 50.2135 23.3143 51.4721 22.7287C52.2714 22.3555 52.9516 21.8352 53.6962 21.3984C54.6441 20.8413 55.2323 20.8429 55.9945 21.5658C57.4584 22.9545 59.2056 22.9345 61.0759 22.4225C61.7893 22.2267 62.4303 21.892 63.0909 21.5942C63.9254 21.2177 64.6896 21.2612 65.3971 21.8134C65.528 21.9155 65.6746 22.0042 65.8075 22.1045C67.4844 23.3662 69.3352 23.4799 71.3032 22.6885C71.8329 22.476 72.3313 22.21 72.8394 21.959C73.7091 21.5323 74.5436 21.534 75.386 22.0343C76.1443 22.4827 76.9065 22.9311 77.7723 23.2256C78.8706 23.6004 79.8908 23.5251 80.8231 22.8759C81.085 22.6935 81.341 22.5061 81.5951 22.317C82.3143 21.7883 82.8928 21.7615 83.6608 22.2284C84.0224 22.4476 84.3761 22.6785 84.7436 22.8926C85.4374 23.2992 86.1918 23.4314 87.0243 23.2808C87.6908 23.1604 88.3221 22.9696 88.9357 22.7253C89.3051 22.5781 89.6803 22.4358 90.04 22.2702C91.2654 21.7046 92.4165 21.8134 93.5403 22.4911C94.0328 22.7872 94.5663 23.0349 95.096 23.2808C96.1494 23.7711 97.1754 23.7042 98.1565 23.1219C98.4927 22.9228 98.8171 22.7103 99.1572 22.5162C99.7239 22.1932 100.289 22.1966 100.836 22.553C101.076 22.7086 101.313 22.8692 101.538 23.0416C102.544 23.8079 103.684 23.9903 104.958 23.6422C105.64 23.4565 106.263 23.162 106.887 22.8742C107.596 22.5446 108.276 22.486 109.003 22.8542C109.603 23.157 110.305 23.1286 110.975 23.1637C112.893 23.2641 114.806 23.065 116.721 23.0834C117.04 23.0867 117.358 23.1202 117.675 23.1436C117.816 23.1537 117.988 23.1503 117.999 23.3126C118.011 23.4649 117.841 23.5084 117.71 23.5402C117.181 23.6657 116.649 23.7895 116.113 23.8966C114.569 24.2011 113.01 24.4002 111.222 24.3835H111.231Z" fill="#FBBF24"/>
<g clip-path="url(#clip0_860_764)">
<path d="M179.175 13.1815L181.975 8.38794L177.125 5.62036" stroke="#FBBF24" stroke-width="1.2" stroke-linecap="round" stroke-linejoin="round"/>
<g clip-path="url(#clip1_860_764)">
<path d="M168.282 6.71993C168.126 6.69415 167.967 6.70169 167.815 6.74204C167.662 6.78238 167.521 6.8546 167.399 6.9538L163.396 10.2117C163.313 10.2779 163.251 10.3665 163.218 10.4669C163.184 10.5672 163.181 10.6749 163.209 10.7769C163.237 10.8789 163.294 10.9707 163.373 11.0412C163.453 11.1117 163.551 11.1578 163.657 11.1739L168.778 12.021C168.934 12.0468 169.093 12.0392 169.245 11.9989C169.398 11.9585 169.54 11.8863 169.661 11.7871L173.67 8.52775C173.753 8.46161 173.815 8.37298 173.848 8.27264C173.881 8.17229 173.884 8.06458 173.856 7.96261C173.829 7.86064 173.772 7.76882 173.692 7.69832C173.613 7.62783 173.514 7.5817 173.409 7.56556L168.282 6.71993Z" stroke="#E4E4E7" stroke-width="1.2" stroke-linecap="round" stroke-linejoin="round"/>
<path d="M175.366 13.5617L171.081 17.0409C170.959 17.1401 170.817 17.2123 170.665 17.2527C170.512 17.293 170.353 17.3005 170.197 17.2748L164.727 16.3794" stroke="#E4E4E7" stroke-width="1.2" stroke-linecap="round" stroke-linejoin="round"/>
<path d="M174.653 10.9328L170.368 14.412C170.246 14.5112 170.104 14.5834 169.952 14.6237C169.799 14.6641 169.64 14.6716 169.485 14.6459L164.014 13.7505" stroke="#E4E4E7" stroke-width="1.2" stroke-linecap="round" stroke-linejoin="round"/>
</g>
<path d="M158.825 10.6823L156.025 15.4759L160.875 18.2435" stroke="#FBBF24" stroke-width="1.2" stroke-linecap="round" stroke-linejoin="round"/>
</g>
<defs>
<clipPath id="clip0_860_764">
<rect width="28" height="16" fill="white" transform="translate(155 4)"/>
</clipPath>
<clipPath id="clip1_860_764">
<rect width="13.2069" height="13.0744" fill="white" transform="matrix(0.966672 -0.256019 0.261645 0.965164 161.146 7.3811)"/>
</clipPath>
</defs>
</svg>
