<svg width="16" height="16" viewBox="0 0 16 16" fill="none" xmlns="http://www.w3.org/2000/svg">
<path d="M9.99967 14.6666V11.9999C10.0924 11.1648 9.85296 10.3267 9.33301 9.66659C11.333 9.66659 13.333 8.33325 13.333 5.99992C13.3863 5.16659 13.153 4.34659 12.6663 3.66659C12.853 2.89992 12.853 2.09992 12.6663 1.33325C12.6663 1.33325 11.9997 1.33325 10.6663 2.33325C8.90634 1.99992 7.09301 1.99992 5.33301 2.33325C3.99967 1.33325 3.33301 1.33325 3.33301 1.33325C3.13301 2.09992 3.13301 2.89992 3.33301 3.66659C2.84759 4.34384 2.61199 5.16844 2.66634 5.99992C2.66634 8.33325 4.66634 9.66659 6.66634 9.66659C6.40634 9.99325 6.21301 10.3666 6.09967 10.7666C5.98634 11.1666 5.95301 11.5866 5.99967 11.9999M5.99967 11.9999V14.6666M5.99967 11.9999C2.99301 13.3333 2.66634 10.6666 1.33301 10.6666" stroke="#E4E4E7" stroke-linecap="round" stroke-linejoin="round"/>
</svg>
