<svg width="16" height="16" viewBox="0 0 16 16" fill="none" xmlns="http://www.w3.org/2000/svg">
<path d="M10.6663 5.33325C11.7272 5.33325 12.7446 5.75468 13.4948 6.50482C14.2449 7.25497 14.6663 8.27239 14.6663 9.33325V13.9999H11.9997V9.33325C11.9997 8.97963 11.8592 8.64049 11.6091 8.39044C11.3591 8.14039 11.02 7.99992 10.6663 7.99992C10.3127 7.99992 9.97358 8.14039 9.72353 8.39044C9.47348 8.64049 9.33301 8.97963 9.33301 9.33325V13.9999H6.66634V9.33325C6.66634 8.27239 7.08777 7.25497 7.83791 6.50482C8.58806 5.75468 9.60548 5.33325 10.6663 5.33325Z" stroke="#E4E4E7" stroke-linecap="round" stroke-linejoin="round"/>
<path d="M3.99967 5.99992H1.33301V13.9999H3.99967V5.99992Z" stroke="#E4E4E7" stroke-linecap="round" stroke-linejoin="round"/>
<path d="M2.66634 3.99992C3.40272 3.99992 3.99967 3.40297 3.99967 2.66659C3.99967 1.93021 3.40272 1.33325 2.66634 1.33325C1.92996 1.33325 1.33301 1.93021 1.33301 2.66659C1.33301 3.40297 1.92996 3.99992 2.66634 3.99992Z" stroke="#E4E4E7" stroke-linecap="round" stroke-linejoin="round"/>
</svg>
