<svg width="24" height="24" viewBox="0 0 24 24" fill="none" xmlns="http://www.w3.org/2000/svg">
<rect width="24" height="24" rx="2" fill="white"/>
<path d="M13.4136 5.26318L18.687 7.54007C18.8131 7.59772 18.9203 7.69215 18.9956 7.81185C19.0708 7.93156 19.1109 8.07138 19.1109 8.21428C19.1109 8.35718 19.0708 8.49699 18.9956 8.6167C18.9203 8.7364 18.8131 8.83083 18.687 8.88849L13.4136 11.1579M10.9264 5.26318L5.3126 7.5327C5.1865 7.59035 5.07929 7.68478 5.00402 7.80449C4.92875 7.92419 4.88867 8.06401 4.88867 8.20691C4.88867 8.34981 4.92875 8.48962 5.00402 8.60933C5.07929 8.72904 5.1865 8.82346 5.3126 8.88112L10.5711 11.1579" stroke="#212121" stroke-width="1.4" stroke-linecap="round" stroke-linejoin="round"/>
<path d="M19.1109 15.3684L12.59 18.5969C12.4047 18.6891 12.2034 18.7368 11.9998 18.7368C11.7961 18.7368 11.5948 18.6891 11.4096 18.5969L4.88867 15.3684" stroke="#212121" stroke-width="1.4" stroke-linecap="round" stroke-linejoin="round"/>
<path d="M19.1109 12L12.59 15.2285C12.4047 15.3207 12.2034 15.3684 11.9998 15.3684C11.7961 15.3684 11.5948 15.3207 11.4096 15.2285L4.88867 12" stroke="#212121" stroke-width="1.4" stroke-linecap="round" stroke-linejoin="round"/>
</svg>
