<svg width="16" height="16" viewBox="0 0 16 16" fill="none" xmlns="http://www.w3.org/2000/svg">
<rect width="16" height="16" rx="2" fill="white"/>
<path d="M8.7953 4L11.7615 5.54503C11.8325 5.58415 11.8928 5.64823 11.9351 5.72945C11.9775 5.81068 12 5.90556 12 6.00253C12 6.09949 11.9775 6.19437 11.9351 6.2756C11.8928 6.35683 11.8325 6.4209 11.7615 6.46003L8.7953 8M7.39621 4L4.23846 5.54003C4.16753 5.57915 4.10722 5.64323 4.06488 5.72445C4.02254 5.80568 4 5.90056 4 5.99753C4 6.09449 4.02254 6.18937 4.06488 6.2706C4.10722 6.35183 4.16753 6.4159 4.23846 6.45503L7.19635 8" stroke="#212121" stroke-width="0.8" stroke-linecap="round" stroke-linejoin="round"/>
<path d="M12 10L8.332 11.9169C8.22778 11.9717 8.11456 12 8 12C7.88544 12 7.77223 11.9717 7.668 11.9169L4 10" stroke="#212121" stroke-width="0.8" stroke-linecap="round" stroke-linejoin="round"/>
<path d="M12 8L8.332 9.91689C8.22778 9.97166 8.11456 10 8 10C7.88544 10 7.77223 9.97166 7.668 9.91689L4 8" stroke="#212121" stroke-width="0.8" stroke-linecap="round" stroke-linejoin="round"/>
</svg>
