<svg width="24" height="24" viewBox="0 0 24 24" fill="none" xmlns="http://www.w3.org/2000/svg">
<rect width="24" height="24" rx="2" fill="white"/>
<path d="M13.5906 4L19.5231 6.7038C19.6649 6.77226 19.7856 6.8844 19.8702 7.02655C19.9549 7.1687 20 7.33473 20 7.50442C20 7.67412 19.9549 7.84015 19.8702 7.9823C19.7856 8.12445 19.6649 8.23658 19.5231 8.30505L13.5906 11M10.7924 4L4.47692 6.69505C4.33506 6.76351 4.21444 6.87565 4.12976 7.0178C4.04508 7.15995 4 7.32598 4 7.49567C4 7.66536 4.04508 7.8314 4.12976 7.97355C4.21444 8.1157 4.33506 8.22783 4.47692 8.2963L10.3927 11" stroke="#212121" stroke-width="1.4" stroke-linecap="round" stroke-linejoin="round"/>
<path d="M20 16L12.664 19.8338C12.4556 19.9433 12.2291 20 12 20C11.7709 20 11.5445 19.9433 11.336 19.8338L4 16" stroke="#212121" stroke-width="1.4" stroke-linecap="round" stroke-linejoin="round"/>
<path d="M20 12L12.664 15.8338C12.4556 15.9433 12.2291 16 12 16C11.7709 16 11.5445 15.9433 11.336 15.8338L4 12" stroke="#212121" stroke-width="1.4" stroke-linecap="round" stroke-linejoin="round"/>
</svg>
