<svg width="28" height="16" viewBox="0 0 28 16" fill="none" xmlns="http://www.w3.org/2000/svg">
<g clip-path="url(#clip0_901_711)">
<path d="M24.1752 9.18153L26.9753 4.38794L22.1255 1.62036" stroke="#FBBF24" stroke-width="1.2" stroke-linecap="round" stroke-linejoin="round"/>
<g clip-path="url(#clip1_901_711)">
<path d="M13.2815 2.71993C13.1259 2.69415 12.9666 2.70169 12.8142 2.74204C12.6619 2.78238 12.5201 2.8546 12.3984 2.9538L8.39551 6.21174C8.31227 6.27788 8.25028 6.36652 8.21709 6.46686C8.1839 6.5672 8.18095 6.67491 8.2086 6.77688C8.23624 6.87885 8.29328 6.97068 8.37278 7.04117C8.45228 7.11167 8.5508 7.15779 8.65635 7.17393L13.7778 8.02097C13.9333 8.04675 14.0927 8.03922 14.245 7.99887C14.3973 7.95852 14.5391 7.88631 14.6608 7.78711L18.669 4.52775C18.7523 4.46161 18.8143 4.37298 18.8475 4.27264C18.8806 4.17229 18.8836 4.06458 18.8559 3.96261C18.8283 3.86064 18.7713 3.76882 18.6918 3.69832C18.6123 3.62783 18.5137 3.5817 18.4082 3.56556L13.2815 2.71993Z" stroke="#e4e4e7" stroke-width="1.2" stroke-linecap="round" stroke-linejoin="round"/>
<path d="M20.3646 9.56171L16.0795 13.0409C15.9579 13.1401 15.8161 13.2123 15.6637 13.2527C15.5114 13.293 15.352 13.3005 15.1965 13.2748L9.72559 12.3794" stroke="#e4e4e7" stroke-width="1.2" stroke-linecap="round" stroke-linejoin="round"/>
<path d="M19.6521 6.93281L15.3671 10.412C15.2455 10.5112 15.1037 10.5834 14.9513 10.6237C14.799 10.6641 14.6396 10.6716 14.4841 10.6459L9.01318 9.75049" stroke="#e4e4e7" stroke-width="1.2" stroke-linecap="round" stroke-linejoin="round"/>
</g>
<path d="M3.82489 6.68231L1.02488 11.4759L5.87464 14.2435" stroke="#FBBF24" stroke-width="1.2" stroke-linecap="round" stroke-linejoin="round"/>
</g>
<defs>
<clipPath id="clip0_901_711">
<rect width="28" height="16" fill="white"/>
</clipPath>
<clipPath id="clip1_901_711">
<rect width="13.2069" height="13.0744" fill="white" transform="matrix(0.966672 -0.256019 0.261645 0.965164 6.146 3.3811)"/>
</clipPath>
</defs>
</svg>
