<svg width="32" height="32" viewBox="0 0 32 32" fill="none" xmlns="http://www.w3.org/2000/svg">
<rect width="32" height="32" rx="2" fill="white"/>
<path d="M17.8186 6.95239L24.5645 9.8953C24.7258 9.96982 24.863 10.0919 24.9593 10.2466C25.0555 10.4013 25.1068 10.582 25.1068 10.7667C25.1068 10.9514 25.0555 11.1321 24.9593 11.2869C24.863 11.4416 24.7258 11.5636 24.5645 11.6382L17.8186 14.5714M14.6368 6.95239L7.4554 9.88578C7.29408 9.96029 7.15693 10.0823 7.06064 10.2371C6.96435 10.3918 6.91309 10.5725 6.91309 10.7572C6.91309 10.9419 6.96435 11.1226 7.06064 11.2773C7.15693 11.4321 7.29408 11.5541 7.4554 11.6286L14.1823 14.5714" stroke="#212121" stroke-width="1.8" stroke-linecap="round" stroke-linejoin="round"/>
<path d="M25.091 20.9048L16.7546 24.8667C16.5178 24.9799 16.2604 25.0385 16.0001 25.0385C15.7397 25.0385 15.4824 24.9799 15.2455 24.8667L6.90918 20.9048" stroke="#212121" stroke-width="1.8" stroke-linecap="round" stroke-linejoin="round"/>
<path d="M25.091 16.1428L16.7546 20.1047C16.5178 20.2179 16.2604 20.2765 16.0001 20.2765C15.7397 20.2765 15.4824 20.2179 15.2455 20.1047L6.90918 16.1428" stroke="#212121" stroke-width="1.8" stroke-linecap="round" stroke-linejoin="round"/>
</svg>
