<svg width="32" height="32" viewBox="0 0 32 32" fill="none" xmlns="http://www.w3.org/2000/svg">
<rect width="32" height="32" rx="2" fill="white"/>
<path d="M18 6.5L25.4205 9.59005C25.5979 9.6683 25.7488 9.79645 25.8547 9.95891C25.9606 10.1214 26.017 10.3111 26.017 10.5051C26.017 10.699 25.9606 10.8887 25.8547 11.0512C25.7488 11.2137 25.5979 11.3418 25.4205 11.4201L18 14.5M14.5 6.5L6.60045 9.58005C6.423 9.6583 6.27213 9.78645 6.16621 9.94891C6.0603 10.1114 6.00391 10.3011 6.00391 10.4951C6.00391 10.689 6.0603 10.8787 6.16621 11.0412C6.27213 11.2037 6.423 11.3318 6.60045 11.4101L14 14.5" stroke="#212121" stroke-width="1.8" stroke-linecap="round" stroke-linejoin="round"/>
<path d="M26 21.1499L16.83 25.3099C16.5694 25.4288 16.2864 25.4903 16 25.4903C15.7136 25.4903 15.4306 25.4288 15.17 25.3099L6 21.1499" stroke="#212121" stroke-width="1.8" stroke-linecap="round" stroke-linejoin="round"/>
<path d="M26 16.1499L16.83 20.3099C16.5694 20.4288 16.2864 20.4903 16 20.4903C15.7136 20.4903 15.4306 20.4288 15.17 20.3099L6 16.1499" stroke="#212121" stroke-width="1.8" stroke-linecap="round" stroke-linejoin="round"/>
</svg>
