<svg width="42" height="24" viewBox="0 0 42 24" fill="none" xmlns="http://www.w3.org/2000/svg">
<g clip-path="url(#clip0_901_704)">
<path d="M36.2626 13.7724L40.4626 6.58203L33.188 2.43066" stroke="#FBBF24" stroke-width="1.5" stroke-linecap="round" stroke-linejoin="round"/>
<g clip-path="url(#clip1_901_704)">
<path d="M19.9229 4.0799C19.6896 4.04123 19.4506 4.05254 19.2221 4.11306C18.9935 4.17358 18.7808 4.2819 18.5983 4.4307L12.594 9.31761C12.4691 9.41682 12.3761 9.54978 12.3264 9.70029C12.2766 9.8508 12.2722 10.0124 12.3136 10.1653C12.3551 10.3183 12.4407 10.456 12.5599 10.5618C12.6791 10.6675 12.8269 10.7367 12.9852 10.7609L20.6674 12.0315C20.9007 12.0701 21.1397 12.0588 21.3682 11.9983C21.5967 11.9378 21.8094 11.8294 21.9919 11.6806L28.0043 6.79163C28.1291 6.69242 28.2221 6.55946 28.2719 6.40895C28.3217 6.25844 28.3261 6.09687 28.2846 5.94392C28.2432 5.79097 28.1576 5.65323 28.0384 5.54749C27.9191 5.44174 27.7713 5.37255 27.613 5.34835L19.9229 4.0799Z" stroke="#e4e4e7" stroke-width="1.5" stroke-linecap="round" stroke-linejoin="round"/>
<path d="M30.5473 14.3426L24.1198 19.5613C23.9373 19.7101 23.7246 19.8185 23.4961 19.879C23.2675 19.9395 23.0285 19.9508 22.7952 19.9121L14.5889 18.5691" stroke="#e4e4e7" stroke-width="1.5" stroke-linecap="round" stroke-linejoin="round"/>
<path d="M29.478 10.3992L23.0504 15.618C22.8679 15.7668 22.6552 15.8751 22.4267 15.9356C22.1982 15.9961 21.9592 16.0074 21.7259 15.9688L13.5195 14.6257" stroke="#e4e4e7" stroke-width="1.5" stroke-linecap="round" stroke-linejoin="round"/>
</g>
<path d="M5.73732 10.0235L1.53731 17.2138L8.81194 21.3652" stroke="#FBBF24" stroke-width="1.5" stroke-linecap="round" stroke-linejoin="round"/>
</g>
<defs>
<clipPath id="clip0_901_704">
<rect width="42" height="24.0002" fill="white"/>
</clipPath>
<clipPath id="clip1_901_704">
<rect width="19.8104" height="19.6115" fill="white" transform="matrix(0.966672 -0.256019 0.261645 0.965164 9.21924 5.07178)"/>
</clipPath>
</defs>
</svg>
